HIERARCHY
ROOT Hips
{
  OFFSET 0 29 0
  CHANNELS 6 Xposition Yposition Zposition Zrotation Xrotation Yrotation
  JOINT Spine
  {
    OFFSET 0 10.1816 0.131521
    CHANNELS 3 Zrotation Xrotation Yrotation
    JOINT Spine1
    {
      OFFSET 0 10.0835 -1.0008
      CHANNELS 3 Zrotation Xrotation Yrotation
      JOINT Spine2
      {
        OFFSET 0 9.10001 -1.37342
        CHANNELS 3 Zrotation Xrotation Yrotation
        JOINT Neck
        {
          OFFSET 0 16.6717 -2.51617
          CHANNELS 3 Zrotation Xrotation Yrotation
          JOINT Head
          {
            OFFSET 0 9.61788 1.68501
            CHANNELS 3 Zrotation Xrotation Yrotation
            End Site
            {
              OFFSET 0 0 0
            }
          }
        }
        JOINT LeftShoulder
        {
          OFFSET 10.57045 10.946 -2.62799
          CHANNELS 3 Zrotation Xrotation Yrotation
          JOINT LeftArm
          {
            OFFSET 10.5924 -0.524583 -2.23212
            CHANNELS 3 Zrotation Xrotation Yrotation
            JOINT LeftForeArm
            {
              OFFSET 27.8415 -8.94286e-05 3.74589e-05
              CHANNELS 3 Zrotation Xrotation Yrotation
              JOINT LeftHand
              {
                OFFSET 28.3288 -1.74407e-05 3.78045e-05
                CHANNELS 3 Zrotation Xrotation Yrotation
                End Site
                {
                  OFFSET 0 0 0
                }
              }
            }
          }
        }
        JOINT RightShoulder
        {
          OFFSET -10.56997 10.9462 -2.62802
          CHANNELS 3 Zrotation Xrotation Yrotation
          JOINT RightArm
          {
            OFFSET -10.5928 -0.524798 -2.2321
            CHANNELS 3 Zrotation Xrotation Yrotation
            JOINT RightForeArm
            {
              OFFSET -27.8415 -3.30792e-05 1.16763e-05
              CHANNELS 3 Zrotation Xrotation Yrotation
              JOINT RightHand
              {
                OFFSET -28.3288 0 5.5816e-05
                CHANNELS 3 Zrotation Xrotation Yrotation
                End Site
                {
                  OFFSET 0 0 0
                }
              }
            }
          }
        }
      }
    }
  }
  JOINT LeftUpLeg
  {
    OFFSET 8.20778 -6.75171 -1.59956
    CHANNELS 3 Zrotation Xrotation Yrotation
    JOINT LeftLeg
    {
      OFFSET 0 -44.3705 0.284643
      CHANNELS 3 Zrotation Xrotation Yrotation
      JOINT LeftFoot
      {
        OFFSET 0 -44.4279 -2.98219
        CHANNELS 3 Zrotation Xrotation Yrotation
        JOINT LeftToeBase
        {
          OFFSET 0 -8.72867 10.7106
          CHANNELS 3 Zrotation Xrotation Yrotation
          End Site
          {
            OFFSET 0 0 0
          }
        }
      }
    }
  }
  JOINT RightUpLeg
  {
    OFFSET -8.2078 -6.75166 -1.59956
    CHANNELS 3 Zrotation Xrotation Yrotation
    JOINT RightLeg
    {
      OFFSET 0 -44.3705 0.286156
      CHANNELS 3 Zrotation Xrotation Yrotation
      JOINT RightFoot
      {
        OFFSET 0 -44.4277 -2.98379
        CHANNELS 3 Zrotation Xrotation Yrotation
        JOINT RightToeBase
        {
          OFFSET 0 -8.72867 10.7106
          CHANNELS 3 Zrotation Xrotation Yrotation
          End Site
          {
            OFFSET 0 0 0
          }
        }
      }
    }
  }
}
MOTION
Frames:	5
Frame Time:	0.0333333
6.46226 89.7925 46.9346 -0.014731333333333332 -0.005363666666666667 0.08293633333333333 9.999999974752427e-07 -9.999999974752427e-07 0.0 9.999999974752427e-07 -1.9999999949504854e-06 0.0 0.0 0.0 0.0 9.999999974752427e-07 0.0 0.0 31.58409900000001 9.28531000000001 -0.060602999999986196 32.45338100000001 0.9590609999999913 -2.2341710000000035 -59.43994699999999 -4.889858000000004 -11.710414000000014 -85.237885 -50.10839899999999 -18.737705000000005 4.9999999873762135e-06 -6.000000013273166e-06 9.999999974752427e-07 -37.49211700000001 4.018407999999994 -9.073913000000005 15.405612999999988 -20.280801999999994 -5.012788999999998 -5.426029999999997 -4.782787000000013 -8.803033999999997 3.999999989900971e-06 0.0 0.0 30.288836000000003 -26.878456 2.0663470000000075 -23.03074699999999 87.842243 2.2208060000000103 9.999999974752427e-07 -2.999999992425728e-06 -9.999999974752427e-07 -1.9999999949504854e-06 9.999999974752427e-07 9.999999974752427e-07 -29.968401 -98.903229 -1.8592470000000105 -49.464042000000006 45.658773 4.307837000000006 -9.999999974752427e-07 -2.999999992425728e-06 -9.999999974752427e-07 0.0 0.0 -9.999999974752427e-07 
7.32906 89.4527 45.6273 -0.011547333333333333 -0.006240333333333334 0.08787899999999998 0.0 0.0 0.0 0.0 0.0 0.0 -9.999999974752427e-07 0.0 0.0 0.0 1.9999999949504854e-06 0.0 29.929086000000012 5.332798999999994 -0.04745399999998767 37.92348799999999 4.132400999999987 -4.087279999999993 -36.368312 -25.01548199999999 -1.8354699999999866 -83.495873 -69.397611 -52.597531000000004 9.999999974752427e-07 -1.9999999949504854e-06 1.9999999949504854e-06 -37.14743899999999 6.149923000000001 -12.048214999999999 12.81196 -17.850032999999996 -5.096861999999987 -21.759795999999994 -5.385324999999995 -19.23121900000001 1.9999999949504854e-06 9.999999974752427e-07 -9.999999974752427e-07 19.656286999999992 5.80519799999999 1.4819200000000023 -13.482634999999988 33.26819499999999 1.323995999999994 -1.9999999949504854e-06 1.9999999949504854e-06 0.0 1.9999999949504854e-06 0.0 0.0 -28.766254000000004 -90.365356 -1.7985299999999995 -18.180154000000016 31.403402999999997 1.7713420000000042 -1.9999999949504854e-06 0.0 -1.9999999949504854e-06 1.9999999949504854e-06 -2.999999992425728e-06 -1.9999999949504854e-06 
8.11098 88.8352 44.2655 -0.009431333333333333 -0.006162666666666667 0.084776 0.0 0.0 -9.999999974752427e-07 1.9999999949504854e-06 0.0 -9.999999974752427e-07 9.999999974752427e-07 -9.999999974752427e-07 9.999999974752427e-07 0.0 0.0 1.9999999949504854e-06 33.22188299999999 6.79353900000001 -0.05986599999999953 36.302572 2.9239760000000103 -12.243473999999992 -57.540389000000005 -38.07221200000001 -12.664603999999997 -72.164063 -62.084514 -17.344313 6.000000013273166e-06 -1.9999999949504854e-06 -3.999999989900971e-06 -36.86139 6.474071000000009 -15.543214000000006 17.54631900000001 -14.957872000000009 0.44259600000000887 -7.923927999999989 -23.968729999999994 -44.548501999999985 1.9999999949504854e-06 9.999999974752427e-07 1.9999999949504854e-06 8.260732999999988 7.272887999999995 0.641083000000009 -5.929055000000005 25.280872999999985 0.5867880000000127 -1.9999999949504854e-06 -1.9999999949504854e-06 -9.999999974752427e-07 -9.999999974752427e-07 -2.999999992425728e-06 0.0 -11.166090999999994 -107.612738 -0.5624080000000049 7.040246999999994 62.31447299999999 -0.6958590000000129 0.0 0.0 -9.999999974752427e-07 -9.999999974752427e-07 2.999999992425728e-06 9.999999974752427e-07 
8.58268 88.0628 42.8454 -0.007292666666666666 -0.007897333333333334 0.09151 9.999999974752427e-07 0.0 -9.999999974752427e-07 -9.999999974752427e-07 0.0 0.0 -9.999999974752427e-07 -9.999999974752427e-07 9.999999974752427e-07 9.999999974752427e-07 0.0 -9.999999974752427e-07 29.473761999999994 4.880030000000005 -0.04491600000000062 31.001607000000007 3.0035239999999988 -12.326235999999994 -60.513188 -6.269718000000012 -12.178471000000002 -86.538763 -38.438556000000005 -7.863858999999991 9.999999974752427e-07 -9.999999974752427e-07 9.999999974752427e-07 -33.280281 8.185328999999996 -20.061189000000013 13.61081200000001 -4.364945000000006 7.633080000000007 -47.53659999999999 4.806263000000001 -59.277238 -9.999999974752427e-07 -1.9999999949504854e-06 -1.9999999949504854e-06 -0.6902680000000032 -2.9314530000000047 -0.08703900000000431 1.8781060000000025 27.22736599999999 -0.1859100000000069 -9.999999974752427e-07 4.9999999873762135e-06 9.999999974752427e-07 -1.9999999949504854e-06 1.9999999949504854e-06 -9.999999974752427e-07 4.784028000000006 -54.898078999999996 0.6320580000000007 10.573698000000007 60.987975000000006 -1.0418219999999963 0.0 0.0 -9.999999974752427e-07 0.0 9.999999974752427e-07 9.999999974752427e-07 
8.56962 87.3124 41.1668 -0.002154 -0.009839 0.09185933333333333 -9.999999974752427e-07 0.0 9.999999974752427e-07 -9.999999974752427e-07 9.999999974752427e-07 9.999999974752427e-07 0.0 9.999999974752427e-07 -2.999999992425728e-06 -9.999999974752427e-07 9.999999974752427e-07 -1.9999999949504854e-06 27.180273 16.107719000000003 -0.052522000000010394 31.594596999999993 4.170715000000001 -4.930164999999988 -63.85498799999999 -9.355593999999996 -11.512812999999994 -88.019664 -45.39798999999999 -14.697336000000007 9.999999974752427e-07 -2.999999992425728e-06 0.0 -28.875925999999993 6.581029000000001 -15.768418999999994 42.17348100000001 5.371386000000001 15.627184 123.83784600000001 -34.316355999999985 48.275480000000016 6.000000013273166e-06 -9.999999974752427e-07 0.0 -7.195679000000013 -7.631171999999992 -0.603541000000007 2.8587960000000123 15.653513000000004 -0.28302199999998834 -3.999999989900971e-06 -1.9999999949504854e-06 -1.9999999949504854e-06 2.999999992425728e-06 1.9999999949504854e-06 9.999999974752427e-07 2.07089400000001 3.3385100000000136 0.16656800000001226 -18.22473099999999 42.504609000000016 1.7755579999999895 -1.9999999949504854e-06 1.9999999949504854e-06 2.999999992425728e-06 -1.9999999949504854e-06 -1.9999999949504854e-06 -1.9999999949504854e-06 
